<?xml version="1.0" standalone="no"?>
<!DOCTYPE svg PUBLIC "-//W3C//DTD SVG 20010904//EN"
 "http://www.w3.org/TR/2001/REC-SVG-20010904/DTD/svg10.dtd">
<svg version="1.0" xmlns="http://www.w3.org/2000/svg"
 width="231.000000pt" height="231.000000pt" viewBox="0 0 231.000000 231.000000"
 preserveAspectRatio="xMidYMid meet">
<metadata>
Created by potrace 1.14, written by Peter Selinger 2001-2017
</metadata>
<g transform="translate(0.000000,231.000000) scale(0.100000,-0.100000)"
fill="#000000" stroke="none">
<path d="M2084 2190 c4 -47 -11 -80 -27 -63 -4 3 -27 7 -51 7 -38 1 -44 -2
-45 -21 -4 -59 0 -83 13 -83 6 0 2 -6 -9 -12 -11 -6 -43 -10 -72 -9 -38 2 -53
-1 -54 -11 -2 -20 0 -50 4 -80 5 -30 8 -29 -78 -32 l-49 -1 -1 -42 c0 -24 2
-43 5 -43 3 0 6 -8 6 -18 0 -16 -9 -18 -66 -18 l-65 1 0 -60 0 -60 -40 -1
c-93 -3 -86 2 -84 -59 1 -33 6 -52 12 -48 6 4 7 1 3 -6 -5 -7 -26 -12 -50 -11
-91 4 -88 6 -85 -53 1 -29 -3 -61 -9 -72 -6 -11 -12 -15 -12 -9 0 16 -100 18
-101 2 -1 -7 -1 -39 0 -71 1 -44 -2 -56 -12 -50 -6 4 -35 8 -63 9 l-51 1 3
-62 4 -63 -40 3 c-25 2 -38 0 -34 -7 4 -7 0 -7 -12 -1 -11 5 -52 9 -91 9 -42
-1 -73 3 -74 9 -1 6 -1 33 -1 61 l-1 52 -46 0 c-25 0 -53 1 -62 1 -13 1 -16
12 -14 61 l2 60 -63 0 -62 0 0 38 c1 94 5 89 -62 85 -33 -2 -60 -1 -59 4 1 4
1 33 0 64 l-1 55 -60 -1 c-66 -1 -63 -5 -60 77 l1 46 -60 -2 c-68 -2 -64 -7
-63 82 0 45 -1 46 -65 42 -44 -2 -75 9 -66 23 4 7 8 31 8 55 l1 42 -61 0 -62
0 1 -965 0 -965 1153 0 1152 0 1 1080 0 1080 -115 0 -115 0 4 -50z"/>
</g>
</svg>
